<svg width="128" height="128" viewBox="0 0 128 128" fill="none" xmlns="http://www.w3.org/2000/svg">
<rect width="128" height="128" fill="#1D539E"/>
<path d="M45.2744 63.1514H47.7158C50.1084 63.1514 51.8743 62.7526 53.0137 61.9551C54.153 61.1576 54.7227 59.9043 54.7227 58.1953C54.7227 56.5026 54.1367 55.2982 52.9648 54.582C51.8092 53.8659 50.0107 53.5078 47.5693 53.5078H45.2744V63.1514ZM45.2744 69.3037V83H37.7061V47.3066H48.1064C52.9567 47.3066 56.5456 48.1937 58.873 49.9678C61.2005 51.7256 62.3643 54.403 62.3643 58C62.3643 60.0996 61.7865 61.9714 60.6309 63.6152C59.4753 65.2428 57.8395 66.5205 55.7236 67.4482C61.0947 75.4723 64.5941 80.6562 66.2217 83H57.8232L49.3027 69.3037H45.2744ZM92.8818 71.8428C92.8818 74.4307 91.946 76.514 90.0742 78.0928C88.2025 79.6553 85.582 80.5911 82.2129 80.9004V85.9053H78.8682V80.998C74.8968 80.9167 71.4137 80.2168 68.4189 78.8984V72.4531C69.835 73.153 71.5358 73.7715 73.5215 74.3086C75.5234 74.8457 77.3057 75.1631 78.8682 75.2607V67.6924L77.2324 67.0576C74.0098 65.7881 71.723 64.4128 70.3721 62.9316C69.0374 61.4342 68.3701 59.5869 68.3701 57.3896C68.3701 55.0296 69.2897 53.0928 71.1289 51.5791C72.9844 50.0492 75.5641 49.1214 78.8682 48.7959V45.0605H82.2129V48.6982C85.9401 48.861 89.3092 49.6097 92.3203 50.9443L90.0254 56.6572C87.4863 55.6156 84.8822 54.9808 82.2129 54.7529V61.9551C85.3867 63.1758 87.641 64.2337 88.9756 65.1289C90.3265 66.0241 91.3112 67.0088 91.9297 68.083C92.5645 69.1572 92.8818 70.4105 92.8818 71.8428ZM85.5332 72.209C85.5332 71.5254 85.2565 70.9476 84.7031 70.4756C84.1497 70.0036 83.3197 69.5153 82.2129 69.0107V75.0898C84.4264 74.7155 85.5332 73.7552 85.5332 72.209ZM75.7188 57.3896C75.7188 58.1058 75.9629 58.6999 76.4512 59.1719C76.9557 59.6276 77.7614 60.0996 78.8682 60.5879V54.8506C76.7686 55.1598 75.7188 56.0062 75.7188 57.3896Z" fill="white"/>
</svg>
